<mxfile host="app.diagrams.net" modified="2024-04-08T20:45:04.055Z" agent="Mozilla/5.0 (Macintosh; Intel Mac OS X 10_15_7) AppleWebKit/537.36 (KHTML, like Gecko) Chrome/123.0.0.0 Safari/537.36" version="24.2.3" etag="MySe_sELGciPBorW_bYv" type="github">
  <diagram name="Page-1" id="q3-AlmvC5hIi-CMXDffi">
    <mxGraphModel>
      <root>
        <mxCell id="0" />
        <mxCell id="1" parent="0" />
      </root>
    </mxGraphModel>
  </diagram>
</mxfile>
